Coordinates
version=1
nRows=12
nColumns=23
inDegrees=yes

Units are S.I. units (second, meters, Newtons, ...)
If the header above contains a line with 'inDegrees', this indicates whether rotational values are in degrees (yes) or radians (no).

endheader
time	pelvis_tilt	pelvis_list	pelvis_rotation	pelvis_tx	pelvis_ty	pelvis_tz	hip_flexion_r	hip_adduction_r	hip_rotation_r	knee_angle_r	knee_angle_r_beta	ankle_angle_r	subtalar_angle_r	mtp_angle_r	hip_flexion_l	hip_adduction_l	hip_rotation_l	knee_angle_l	knee_angle_l_beta	ankle_angle_l	subtalar_angle_l	mtp_angle_l
     22.50000000	     -2.57015609	     -9.88959309	     -7.93891561	      2.24374900	      1.04485081	      1.08786029	     32.68363737	     11.90463973	     -7.45056662	     43.24517077	      0.75477062	      2.74422710	    -12.24215400	      0.00000000	     -4.87645413	     -9.85328463	    -12.36794344	     95.34349333	      1.66405788	     -8.65227047	    -22.37596932	      0.00000000
     22.50666667	     -2.60713443	    -10.56910612	     -8.47149421	      2.24071544	      1.04189973	      1.08765870	     32.13415589	     12.61603048	     -7.17930348	     45.32953650	      0.79114966	      5.15773265	    -11.43735415	      0.00000000	     -2.48458936	    -10.84133251	    -12.07044767	     98.70129015	      1.72266249	     -7.08018000	    -21.77337279	      0.00000000
     22.51333333	     -2.49810803	    -11.29944119	     -8.80770552	      2.23769289	      1.03967060	      1.08719712	     31.15425153	     13.22560523	     -7.08459575	     46.97155724	      0.81980833	      7.71153655	    -10.66186715	      0.00000000	     -0.09032456	    -11.83998000	    -11.41289099	    101.77564188	      1.77632005	     -5.67570717	    -21.14375915	      0.00000000
     22.52000000	     -2.52230165	    -11.98415916	     -8.98042826	      2.23474435	      1.03799357	      1.08668907	     30.01640567	     13.82960552	     -6.86503092	     48.07073765	      0.83899265	      9.94710173	    -10.18185159	      0.00000000	      2.64435496	    -12.77708305	    -10.36530805	    104.56750206	      1.82504720	     -4.32246783	    -20.20354104	      0.00000000
     22.52666667	     -2.37282640	    -12.57028375	     -8.83190190	      2.23197681	      1.03709936	      1.08583566	     28.45483185	     14.19497039	     -6.73140045	     48.72199346	      0.85035920	     11.95409007	    -10.25458173	      0.00000000	      5.40945882	    -13.45951665	     -8.86082958	    106.99783093	      1.86746444	     -3.21248980	    -19.40879147	      0.00000000
     22.53333333	     -2.73483363	    -12.86854923	     -8.66078137	      2.22935873	      1.03600122	      1.08521210	     27.35993104	     14.22439914	     -6.85989808	     49.27231500	      0.85996413	     14.67923297	     -8.34257670	      0.00000000	      8.93977930	    -13.84148658	     -7.12608026	    109.19035245	      1.90573116	     -1.76591685	    -17.61453418	      0.00000000
     22.54000000	     -2.86408672	    -13.12621874	     -8.22931568	      2.22699789	      1.03585812	      1.08452069	     25.72271326	     14.24295171	     -6.80061019	     49.20292222	      0.85875299	     16.29650816	     -8.12038678	      0.00000000	     12.31600021	    -14.00539652	     -5.12635380	    110.93747486	      1.93622420	     -0.65239320	    -16.07554078	      0.00000000
     22.54666667	     -3.10959519	    -13.19945156	     -7.69674998	      2.22490270	      1.03599133	      1.08392549	     24.10285837	     14.05077300	     -6.85251332	     48.93841300	      0.85413644	     17.99247843	     -7.38313218	      0.00000000	     15.88517971	    -13.87023479	     -3.03870339	    112.31662713	      1.96029495	      0.53672235	    -14.31863547	      0.00000000
     22.55333333	     -3.27098602	    -13.03501408	     -7.08754551	      2.22318262	      1.03672403	      1.08329424	     22.28111588	     13.53733503	     -7.03684978	     48.49970727	      0.84647958	     19.97866736	     -5.97149673	      0.00000000	     19.31261458	    -13.32476358	     -1.06329187	    113.22710708	      1.97618582	      1.55399785	    -12.85685661	      0.00000000
     22.56000000	     -3.24298993	    -12.76651248	     -6.33149840	      2.22171064	      1.03825386	      1.08262618	     20.06747932	     12.97046564	     -7.11291063	     47.61612705	      0.83105819	     20.96291998	     -5.61310374	      0.00000000	     22.45383028	    -12.51152423	      0.83314684	    113.67581639	      1.98401728	      2.37555061	    -11.77636914	      0.00000000
     22.56666667	     -3.39448044	    -12.38313850	     -5.70067094	      2.22061901	      1.03994150	      1.08221345	     17.96640290	     12.29206568	     -7.33292423	     46.65919829	      0.81435664	     22.28336468	     -3.96464060	      0.00000000	     25.61353732	    -11.62117274	      2.40767621	    113.73784483	      1.98509988	      3.30891718	    -10.57280414	      0.00000000
     22.57333333	     -3.46357627	    -11.86245214	     -5.04516689	      2.21977090	      1.04228037	      1.08181641	     15.62384216	     11.56142990	     -7.40137471	     45.31681576	      0.79092764	     22.66842897	     -3.36302871	      0.00000000	     28.50317813	    -10.51962520	      3.72894971	    113.35374079	      1.97839600	      4.04320744	    -10.04778331	      0.00000000
